<svg width="668" height="668" viewBox="0 0 668 668" fill="none" xmlns="http://www.w3.org/2000/svg">
<path fill-rule="evenodd" clip-rule="evenodd" d="M634 0.666626C652.409 0.666626 667.333 15.5906 667.333 34V634C667.333 652.41 652.409 667.333 634 667.333C615.591 667.333 600.667 652.41 600.667 634V34C600.667 15.5906 615.591 0.666626 634 0.666626ZM67.3331 566.413C67.3331 593.967 98.8631 609.623 120.813 592.97L427.174 360.557C444.757 347.217 444.757 320.783 427.174 307.443L120.813 75.0317C98.8631 58.3791 67.3331 74.0354 67.3331 101.588V566.413ZM161.106 646.083C95.2531 696.04 0.666443 649.07 0.666443 566.413V101.588C0.666443 18.9301 95.2531 -28.0383 161.106 21.9191L467.467 254.331C520.215 294.347 520.215 373.653 467.467 413.67L161.106 646.083Z" fill="url(#paint0_linear_65_17)"/>
<defs>
<linearGradient id="paint0_linear_65_17" x1="645.5" y1="667" x2="20.6023" y2="28.27" gradientUnits="userSpaceOnUse">
<stop stop-color="#BA83CA"/>
<stop offset="0.205" stop-color="#AA8FD6"/>
<stop offset="0.445" stop-color="#AA8FD8"/>
<stop offset="0.835" stop-color="#9A9AE1"/>
<stop offset="1" stop-color="#8AA7EC"/>
</linearGradient>
</defs>
</svg>
