<svg width="668" height="668" viewBox="0 0 668 668" fill="none" xmlns="http://www.w3.org/2000/svg">
<path fill-rule="evenodd" clip-rule="evenodd" d="M33.9998 0.666626C15.5905 0.666626 0.666504 15.5906 0.666504 34V634C0.666504 652.41 15.5905 667.333 33.9998 667.333C52.4092 667.333 67.3332 652.41 67.3332 634V34C67.3332 15.5906 52.4092 0.666626 33.9998 0.666626ZM600.667 566.413C600.667 593.967 569.137 609.623 547.187 592.97L240.826 360.557C223.243 347.217 223.243 320.783 240.826 307.443L547.187 75.0317C569.137 58.3791 600.667 74.0354 600.667 101.588V566.413ZM506.894 646.083C572.747 696.04 667.334 649.07 667.334 566.413V101.588C667.334 18.9301 572.747 -28.0383 506.894 21.9191L200.533 254.331C147.785 294.347 147.785 373.653 200.533 413.67L506.894 646.083Z" fill="url(#paint0_linear_65_15)"/>
<defs>
<linearGradient id="paint0_linear_65_15" x1="22.5" y1="667" x2="647.398" y2="28.27" gradientUnits="userSpaceOnUse">
<stop stop-color="#BA83CA"/>
<stop offset="0.205" stop-color="#AA8FD6"/>
<stop offset="0.445" stop-color="#AA8FD8"/>
<stop offset="0.835" stop-color="#9A9AE1"/>
<stop offset="1" stop-color="#8AA7EC"/>
</linearGradient>
</defs>
</svg>
